<mxfile host="app.diagrams.net" agent="Mozilla/5.0 (Windows NT 10.0; Win64; x64) AppleWebKit/537.36 (KHTML, like Gecko) Chrome/141.0.0.0 Safari/537.36" version="28.2.5">
  <diagram name="Page-1" id="ouP-DB31pKr3CoyfZY_b">
    <mxGraphModel grid="0" page="1" gridSize="10" guides="1" tooltips="1" connect="1" arrows="1" fold="1" pageScale="1" pageWidth="1100" pageHeight="850" background="none" math="0" shadow="0">
      <root>
        <mxCell id="0" />
        <mxCell id="1" parent="0" />
        <mxCell id="0lmxRMsLEvbwCymTDHVY-54" value="" style="rounded=0;whiteSpace=wrap;html=1;fillColor=light-dark(#FFFFFF,transparent);strokeWidth=2;dashed=1;dashPattern=8 8;" vertex="1" parent="1">
          <mxGeometry x="50" y="130" width="380" height="400" as="geometry" />
        </mxCell>
        <mxCell id="0lmxRMsLEvbwCymTDHVY-5" value="" style="rounded=0;whiteSpace=wrap;html=1;fillColor=light-dark(#FFFFFF,transparent);dashed=1;strokeWidth=2;container=1;" vertex="1" parent="1">
          <mxGeometry x="518" y="20" width="430" height="811" as="geometry" />
        </mxCell>
        <mxCell id="0lmxRMsLEvbwCymTDHVY-28" value="" style="whiteSpace=wrap;html=1;aspect=fixed;fillColor=light-dark(#FFFFFF,#172126);container=1;" vertex="1" parent="0lmxRMsLEvbwCymTDHVY-5">
          <mxGeometry x="99.5" y="498.54947142857134" width="261.3222222222222" height="261.3222222222222" as="geometry" />
        </mxCell>
        <mxCell id="0lmxRMsLEvbwCymTDHVY-29" value="&lt;span style=&quot;font-size: 14px;&quot;&gt;&lt;font style=&quot;color: light-dark(rgb(0, 0, 0), rgb(255, 255, 255));&quot;&gt;Database&lt;/font&gt;&lt;/span&gt;" style="text;html=1;align=center;verticalAlign=middle;whiteSpace=wrap;rounded=0;fillColor=#60a917;fontColor=#ffffff;strokeColor=#2D7600;spacing=0;spacingRight=1;container=1;" vertex="1" parent="0lmxRMsLEvbwCymTDHVY-28">
          <mxGeometry y="0.901111111111111" width="110.83666666666664" height="21.626666666666665" as="geometry" />
        </mxCell>
        <mxCell id="0lmxRMsLEvbwCymTDHVY-15" value="Primary" style="text;strokeColor=none;fillColor=none;align=center;verticalAlign=middle;spacingLeft=4;spacingRight=4;overflow=hidden;points=[[0,0.5],[1,0.5]];portConstraint=eastwest;rotatable=0;whiteSpace=wrap;html=1;fontSize=16;" vertex="1" parent="0lmxRMsLEvbwCymTDHVY-28">
          <mxGeometry x="104.00333333333332" y="46.05888888888889" width="135.16666666666666" height="46.85777777777777" as="geometry" />
        </mxCell>
        <mxCell id="0lmxRMsLEvbwCymTDHVY-14" value="" style="sketch=0;outlineConnect=0;fontColor=#232F3E;gradientColor=none;fillColor=#C925D1;strokeColor=none;dashed=0;verticalLabelPosition=bottom;verticalAlign=top;align=center;html=1;fontSize=12;fontStyle=0;aspect=fixed;pointerEvents=1;shape=mxgraph.aws4.rds_mysql_instance;" vertex="1" parent="0lmxRMsLEvbwCymTDHVY-28">
          <mxGeometry x="38.00444444444444" y="42.454444444444434" width="54.066666666666656" height="54.066666666666656" as="geometry" />
        </mxCell>
        <mxCell id="079j5C6wXISw9ypYBe6R-34" value="Failover" style="text;strokeColor=none;fillColor=none;align=center;verticalAlign=middle;spacingLeft=4;spacingRight=4;overflow=hidden;points=[[0,0.5],[1,0.5]];portConstraint=eastwest;rotatable=0;whiteSpace=wrap;html=1;fontSize=16;" vertex="1" parent="0lmxRMsLEvbwCymTDHVY-28">
          <mxGeometry x="104.00333333333332" y="156.79777777777775" width="135.16666666666666" height="46.85777777777777" as="geometry" />
        </mxCell>
        <mxCell id="079j5C6wXISw9ypYBe6R-19" value="" style="sketch=0;outlineConnect=0;fontColor=#232F3E;gradientColor=none;fillColor=#C925D1;strokeColor=none;dashed=0;verticalLabelPosition=bottom;verticalAlign=top;align=center;html=1;fontSize=12;fontStyle=0;aspect=fixed;pointerEvents=1;shape=mxgraph.aws4.rds_mysql_instance;" vertex="1" parent="0lmxRMsLEvbwCymTDHVY-28">
          <mxGeometry x="36.04444444444444" y="153.18888888888887" width="54.066666666666656" height="54.066666666666656" as="geometry" />
        </mxCell>
        <mxCell id="0lmxRMsLEvbwCymTDHVY-30" value="" style="endArrow=classic;html=1;rounded=0;startArrow=classic;startFill=1;flowAnimation=1;" edge="1" parent="0lmxRMsLEvbwCymTDHVY-28" source="0lmxRMsLEvbwCymTDHVY-14" target="079j5C6wXISw9ypYBe6R-19">
          <mxGeometry width="50" height="50" relative="1" as="geometry">
            <mxPoint x="-27.033333333333328" y="-54.066666666666656" as="sourcePoint" />
            <mxPoint x="18.02222222222222" y="-99.1222222222222" as="targetPoint" />
          </mxGeometry>
        </mxCell>
        <mxCell id="0lmxRMsLEvbwCymTDHVY-31" value="&lt;span style=&quot;font-size: 14px;&quot;&gt;Amazon RDS&lt;/span&gt;" style="text;html=1;align=center;verticalAlign=middle;whiteSpace=wrap;rounded=0;" vertex="1" parent="0lmxRMsLEvbwCymTDHVY-28">
          <mxGeometry x="79.74833333333332" y="203.65111111111108" width="110.83666666666664" height="57.6711111111111" as="geometry" />
        </mxCell>
        <mxCell id="0lmxRMsLEvbwCymTDHVY-6" value="&lt;span style=&quot;font-size: 14px;&quot;&gt;&lt;font style=&quot;color: light-dark(rgb(0, 0, 0), rgb(255, 255, 255));&quot;&gt;Data Layer&lt;/font&gt;&lt;/span&gt;" style="text;html=1;align=center;verticalAlign=middle;whiteSpace=wrap;rounded=0;fillColor=#60a917;fontColor=#ffffff;strokeColor=#2D7600;spacing=0;spacingRight=1;container=1;" vertex="1" parent="0lmxRMsLEvbwCymTDHVY-5">
          <mxGeometry y="0.9011111111111111" width="123" height="25.277922077922074" as="geometry" />
        </mxCell>
        <mxCell id="0lmxRMsLEvbwCymTDHVY-32" value="" style="whiteSpace=wrap;html=1;aspect=fixed;fillColor=light-dark(#FFFFFF,#172126);container=1;" vertex="1" parent="0lmxRMsLEvbwCymTDHVY-5">
          <mxGeometry x="99.5" y="209.29795396825395" width="261.3222222222222" height="261.3222222222222" as="geometry" />
        </mxCell>
        <mxCell id="0lmxRMsLEvbwCymTDHVY-33" value="&lt;span style=&quot;font-size: 14px;&quot;&gt;&lt;font style=&quot;color: light-dark(rgb(0, 0, 0), rgb(255, 255, 255));&quot;&gt;Persistent Storage&lt;/font&gt;&lt;/span&gt;" style="text;html=1;align=center;verticalAlign=middle;whiteSpace=wrap;rounded=0;fillColor=#60a917;fontColor=#ffffff;strokeColor=#2D7600;spacing=0;spacingRight=1;container=1;" vertex="1" parent="0lmxRMsLEvbwCymTDHVY-32">
          <mxGeometry y="1.802222222222222" width="126.15555555555554" height="21.626666666666665" as="geometry" />
        </mxCell>
        <mxCell id="079j5C6wXISw9ypYBe6R-38" value="&lt;font style=&quot;font-size: 14px;&quot;&gt;S3 Bucket&lt;/font&gt;" style="text;html=1;align=center;verticalAlign=middle;whiteSpace=wrap;rounded=0;" vertex="1" parent="0lmxRMsLEvbwCymTDHVY-32">
          <mxGeometry x="111.96305555555554" y="157.24388888888888" width="110.83666666666664" height="57.6711111111111" as="geometry" />
        </mxCell>
        <mxCell id="079j5C6wXISw9ypYBe6R-27" value="" style="sketch=0;points=[[0,0,0],[0.25,0,0],[0.5,0,0],[0.75,0,0],[1,0,0],[0,1,0],[0.25,1,0],[0.5,1,0],[0.75,1,0],[1,1,0],[0,0.25,0],[0,0.5,0],[0,0.75,0],[1,0.25,0],[1,0.5,0],[1,0.75,0]];outlineConnect=0;fontColor=#232F3E;fillColor=#7AA116;strokeColor=#ffffff;dashed=0;verticalLabelPosition=bottom;verticalAlign=top;align=center;html=1;fontSize=12;fontStyle=0;aspect=fixed;shape=mxgraph.aws4.resourceIcon;resIcon=mxgraph.aws4.s3;" vertex="1" parent="0lmxRMsLEvbwCymTDHVY-32">
          <mxGeometry x="39.87416666666666" y="159.0461111111111" width="54.066666666666656" height="54.066666666666656" as="geometry" />
        </mxCell>
        <mxCell id="0lmxRMsLEvbwCymTDHVY-1" value="" style="outlineConnect=0;dashed=0;verticalLabelPosition=bottom;verticalAlign=top;align=center;html=1;shape=mxgraph.aws3.efs_share;fillColor=#E05243;gradientColor=none;" vertex="1" parent="0lmxRMsLEvbwCymTDHVY-32">
          <mxGeometry x="38.522499999999994" y="59.92388888888888" width="55.41833333333332" height="54.066666666666656" as="geometry" />
        </mxCell>
        <mxCell id="0lmxRMsLEvbwCymTDHVY-2" value="&lt;span style=&quot;font-size: 14px;&quot;&gt;EFS&lt;/span&gt;" style="text;html=1;align=center;verticalAlign=middle;whiteSpace=wrap;rounded=0;" vertex="1" parent="0lmxRMsLEvbwCymTDHVY-32">
          <mxGeometry x="111.96305555555554" y="59.92388888888888" width="110.83666666666664" height="57.6711111111111" as="geometry" />
        </mxCell>
        <mxCell id="0lmxRMsLEvbwCymTDHVY-45" value="" style="rounded=0;whiteSpace=wrap;html=1;fillColor=light-dark(#FFFFFF,#172126);container=1;" vertex="1" parent="0lmxRMsLEvbwCymTDHVY-5">
          <mxGeometry x="99.5" y="48" width="260" height="138.03" as="geometry" />
        </mxCell>
        <mxCell id="0lmxRMsLEvbwCymTDHVY-46" value="&lt;span style=&quot;font-size: 14px;&quot;&gt;ElastiCache&lt;/span&gt;" style="text;html=1;align=center;verticalAlign=middle;whiteSpace=wrap;rounded=0;" vertex="1" parent="0lmxRMsLEvbwCymTDHVY-45">
          <mxGeometry x="123.5" y="48.353888888888875" width="123" height="57.67111111111111" as="geometry" />
        </mxCell>
        <mxCell id="0lmxRMsLEvbwCymTDHVY-44" value="" style="sketch=0;points=[[0,0,0],[0.25,0,0],[0.5,0,0],[0.75,0,0],[1,0,0],[0,1,0],[0.25,1,0],[0.5,1,0],[0.75,1,0],[1,1,0],[0,0.25,0],[0,0.5,0],[0,0.75,0],[1,0.25,0],[1,0.5,0],[1,0.75,0]];outlineConnect=0;fontColor=#232F3E;fillColor=#C925D1;strokeColor=#ffffff;dashed=0;verticalLabelPosition=bottom;verticalAlign=top;align=center;html=1;fontSize=12;fontStyle=0;aspect=fixed;shape=mxgraph.aws4.resourceIcon;resIcon=mxgraph.aws4.elasticache;" vertex="1" parent="0lmxRMsLEvbwCymTDHVY-45">
          <mxGeometry x="33.5" y="43.84833333333333" width="62.17666666666666" height="62.17666666666666" as="geometry" />
        </mxCell>
        <mxCell id="0lmxRMsLEvbwCymTDHVY-47" value="&lt;span style=&quot;font-size: 14px;&quot;&gt;&lt;font style=&quot;color: light-dark(rgb(0, 0, 0), rgb(255, 255, 255));&quot;&gt;Caching&lt;/font&gt;&lt;/span&gt;" style="text;html=1;align=center;verticalAlign=middle;whiteSpace=wrap;rounded=0;fillColor=#60a917;fontColor=#ffffff;strokeColor=#2D7600;spacing=0;spacingRight=1;container=1;" vertex="1" parent="0lmxRMsLEvbwCymTDHVY-45">
          <mxGeometry y="-0.0022222222222225696" width="140" height="21.626666666666665" as="geometry" />
        </mxCell>
        <mxCell id="0lmxRMsLEvbwCymTDHVY-11" value="" style="rounded=0;whiteSpace=wrap;html=1;fillColor=light-dark(#FFFFFF,#E1EFDF);" vertex="1" parent="1">
          <mxGeometry x="241.5" y="190" width="120" height="281" as="geometry" />
        </mxCell>
        <mxCell id="079j5C6wXISw9ypYBe6R-8" value="" style="sketch=0;outlineConnect=0;fontColor=#232F3E;gradientColor=none;fillColor=#8C4FFF;strokeColor=none;dashed=0;verticalLabelPosition=bottom;verticalAlign=top;align=center;html=1;fontSize=12;fontStyle=0;aspect=fixed;pointerEvents=1;shape=mxgraph.aws4.network_load_balancer;" vertex="1" parent="1">
          <mxGeometry x="80" y="292.5" width="78" height="78" as="geometry" />
        </mxCell>
        <mxCell id="0lmxRMsLEvbwCymTDHVY-3" value="&lt;span style=&quot;font-size: 14px;&quot;&gt;Application&lt;/span&gt;&lt;div&gt;&lt;span style=&quot;font-size: 14px;&quot;&gt;Load Balancer&lt;/span&gt;&lt;/div&gt;" style="text;html=1;align=center;verticalAlign=middle;whiteSpace=wrap;rounded=0;" vertex="1" parent="1">
          <mxGeometry x="57.5" y="379" width="123" height="64" as="geometry" />
        </mxCell>
        <mxCell id="0lmxRMsLEvbwCymTDHVY-4" value="&lt;span style=&quot;font-size: 14px;&quot;&gt;&lt;font style=&quot;color: light-dark(rgb(255, 255, 255), rgb(23, 33, 38));&quot;&gt;Amazon EC2&lt;/font&gt;&lt;/span&gt;" style="text;html=1;align=center;verticalAlign=middle;whiteSpace=wrap;rounded=0;" vertex="1" parent="1">
          <mxGeometry x="241.5" y="315" width="123" height="64" as="geometry" />
        </mxCell>
        <mxCell id="0lmxRMsLEvbwCymTDHVY-10" value="" style="sketch=0;points=[[0,0,0],[0.25,0,0],[0.5,0,0],[0.75,0,0],[1,0,0],[0,1,0],[0.25,1,0],[0.5,1,0],[0.75,1,0],[1,1,0],[0,0.25,0],[0,0.5,0],[0,0.75,0],[1,0.25,0],[1,0.5,0],[1,0.75,0]];outlineConnect=0;fontColor=#232F3E;fillColor=#ED7100;strokeColor=#ffffff;dashed=0;verticalLabelPosition=bottom;verticalAlign=top;align=center;html=1;fontSize=12;fontStyle=0;aspect=fixed;shape=mxgraph.aws4.resourceIcon;resIcon=mxgraph.aws4.ec2;" vertex="1" parent="1">
          <mxGeometry x="262.5" y="252" width="78" height="78" as="geometry" />
        </mxCell>
        <mxCell id="0lmxRMsLEvbwCymTDHVY-12" value="" style="sketch=0;points=[[0,0,0],[0.25,0,0],[0.5,0,0],[0.75,0,0],[1,0,0],[0,1,0],[0.25,1,0],[0.5,1,0],[0.75,1,0],[1,1,0],[0,0.25,0],[0,0.5,0],[0,0.75,0],[1,0.25,0],[1,0.5,0],[1,0.75,0]];outlineConnect=0;fontColor=#232F3E;fillColor=#ED7100;strokeColor=#ffffff;dashed=0;verticalLabelPosition=bottom;verticalAlign=top;align=center;html=1;fontSize=12;fontStyle=0;aspect=fixed;shape=mxgraph.aws4.resourceIcon;resIcon=mxgraph.aws4.ec2;" vertex="1" parent="1">
          <mxGeometry x="262.5" y="364" width="78" height="78" as="geometry" />
        </mxCell>
        <mxCell id="0lmxRMsLEvbwCymTDHVY-43" value="" style="endArrow=classic;html=1;rounded=0;startArrow=classic;startFill=1;fontStyle=1;flowAnimation=1;edgeStyle=orthogonalEdgeStyle;" edge="1" parent="1" target="0lmxRMsLEvbwCymTDHVY-1">
          <mxGeometry width="50" height="50" relative="1" as="geometry">
            <mxPoint x="360" y="291" as="sourcePoint" />
            <mxPoint x="584" y="337" as="targetPoint" />
            <Array as="points">
              <mxPoint x="472" y="291" />
              <mxPoint x="472" y="320" />
            </Array>
          </mxGeometry>
        </mxCell>
        <mxCell id="0lmxRMsLEvbwCymTDHVY-48" value="" style="endArrow=classic;html=1;rounded=0;startArrow=classic;startFill=1;flowAnimation=1;edgeStyle=orthogonalEdgeStyle;" edge="1" parent="1" target="0lmxRMsLEvbwCymTDHVY-44">
          <mxGeometry width="50" height="50" relative="1" as="geometry">
            <mxPoint x="361" y="248" as="sourcePoint" />
            <mxPoint x="584" y="81" as="targetPoint" />
            <Array as="points">
              <mxPoint x="454" y="248" />
              <mxPoint x="454" y="143" />
            </Array>
          </mxGeometry>
        </mxCell>
        <mxCell id="0lmxRMsLEvbwCymTDHVY-49" value="" style="endArrow=classic;startArrow=classic;html=1;rounded=0;entryX=0;entryY=0.5;entryDx=0;entryDy=0;flowAnimation=1;" edge="1" parent="1" source="079j5C6wXISw9ypYBe6R-8">
          <mxGeometry width="50" height="50" relative="1" as="geometry">
            <mxPoint x="490" y="401" as="sourcePoint" />
            <mxPoint x="241.5" y="331.5" as="targetPoint" />
          </mxGeometry>
        </mxCell>
        <mxCell id="0lmxRMsLEvbwCymTDHVY-50" value="&lt;span style=&quot;font-size: 14px;&quot;&gt;&lt;font style=&quot;color: light-dark(rgb(0, 0, 0), rgb(255, 255, 255));&quot;&gt;Auto Scaling Group&lt;/font&gt;&lt;/span&gt;" style="text;html=1;align=center;verticalAlign=middle;whiteSpace=wrap;rounded=0;fillColor=#60a917;fontColor=#ffffff;strokeColor=#2D7600;spacing=0;spacingRight=1;container=1;" vertex="1" parent="1">
          <mxGeometry x="241.5" y="191" width="120" height="34" as="geometry" />
        </mxCell>
        <mxCell id="0lmxRMsLEvbwCymTDHVY-53" value="&lt;span style=&quot;font-size: 14px;&quot;&gt;&lt;font style=&quot;color: light-dark(rgb(255, 255, 255), rgb(23, 33, 38));&quot;&gt;Amazon EC2&lt;/font&gt;&lt;/span&gt;" style="text;html=1;align=center;verticalAlign=middle;whiteSpace=wrap;rounded=0;" vertex="1" parent="1">
          <mxGeometry x="240" y="426" width="123" height="64" as="geometry" />
        </mxCell>
        <mxCell id="0lmxRMsLEvbwCymTDHVY-55" value="&lt;span style=&quot;font-size: 14px;&quot;&gt;&lt;font style=&quot;color: light-dark(rgb(0, 0, 0), rgb(255, 255, 255));&quot;&gt;Compute Layer&lt;/font&gt;&lt;/span&gt;" style="text;html=1;align=center;verticalAlign=middle;whiteSpace=wrap;rounded=0;fillColor=#60a917;fontColor=#ffffff;strokeColor=#2D7600;spacing=0;spacingRight=1;container=1;" vertex="1" parent="1">
          <mxGeometry x="50" y="131" width="120" height="34" as="geometry" />
        </mxCell>
        <mxCell id="0lmxRMsLEvbwCymTDHVY-57" value="" style="endArrow=classic;html=1;rounded=0;startArrow=classic;startFill=1;entryX=0;entryY=0.5;entryDx=0;entryDy=0;entryPerimeter=0;fontStyle=1;flowAnimation=1;edgeStyle=orthogonalEdgeStyle;exitX=1;exitY=1;exitDx=0;exitDy=0;" edge="1" parent="1" source="0lmxRMsLEvbwCymTDHVY-4" target="079j5C6wXISw9ypYBe6R-27">
          <mxGeometry width="50" height="50" relative="1" as="geometry">
            <mxPoint x="482" y="337" as="sourcePoint" />
            <mxPoint x="742" y="390" as="targetPoint" />
            <Array as="points">
              <mxPoint x="475" y="379" />
              <mxPoint x="475" y="415" />
            </Array>
          </mxGeometry>
        </mxCell>
        <mxCell id="0lmxRMsLEvbwCymTDHVY-58" value="" style="endArrow=classic;html=1;rounded=0;startArrow=classic;startFill=1;fontStyle=1;flowAnimation=1;edgeStyle=orthogonalEdgeStyle;exitX=1;exitY=0.25;exitDx=0;exitDy=0;" edge="1" parent="1" source="0lmxRMsLEvbwCymTDHVY-53" target="0lmxRMsLEvbwCymTDHVY-14">
          <mxGeometry width="50" height="50" relative="1" as="geometry">
            <mxPoint x="458" y="459" as="sourcePoint" />
            <mxPoint x="516" y="613" as="targetPoint" />
            <Array as="points">
              <mxPoint x="458" y="442" />
              <mxPoint x="458" y="588" />
            </Array>
          </mxGeometry>
        </mxCell>
      </root>
    </mxGraphModel>
  </diagram>
</mxfile>
